<?xml version="1.0" standalone="no"?>
<!DOCTYPE svg PUBLIC "-//W3C//DTD SVG 20010904//EN"
 "http://www.w3.org/TR/2001/REC-SVG-20010904/DTD/svg10.dtd">
<svg version="1.0" xmlns="http://www.w3.org/2000/svg"
 width="2560.000000pt" height="584.000000pt" viewBox="0 0 2560.000000 584.000000"
 preserveAspectRatio="xMidYMid meet">

<g transform="translate(0.000000,584.000000) scale(0.100000,-0.100000)"
fill="#14439c" stroke="none">
<path d="M9110 5830 c-602 -46 -1177 -197 -1537 -402 -421 -240 -815 -700
-1028 -1198 -250 -585 -318 -1343 -180 -2025 131 -651 471 -1221 966 -1619
316 -254 794 -433 1402 -526 624 -94 1298 -55 1903 111 496 136 811 318 1134
656 418 438 663 965 757 1633 25 181 25 751 0 930 -96 677 -338 1198 -757
1633 -209 217 -396 358 -620 466 -336 162 -764 273 -1260 326 -173 19 -619 27
-780 15z m633 -719 c307 -66 537 -188 743 -395 205 -204 317 -422 415 -804 91
-354 124 -659 116 -1067 -11 -535 -99 -979 -265 -1337 -181 -390 -548 -669
-1016 -770 -86 -19 -132 -22 -316 -22 -184 0 -230 3 -316 22 -292 63 -535 188
-730 375 -126 120 -203 225 -274 371 -159 328 -251 743 -280 1255 -38 680 134
1472 397 1826 220 296 555 495 933 555 41 6 82 13 90 15 8 2 103 2 210 1 152
-3 216 -8 293 -25z"/>
<path d="M22168 5829 c-543 -37 -1091 -170 -1457 -354 -207 -103 -323 -188
-515 -375 -469 -456 -751 -1049 -830 -1750 -69 -604 12 -1221 226 -1720 165
-387 434 -750 753 -1018 363 -306 927 -500 1690 -584 185 -20 742 -17 925 5
645 79 1131 229 1476 456 171 113 382 311 540 507 153 190 334 508 417 734
252 682 275 1511 61 2215 -188 623 -624 1196 -1127 1483 -505 289 -1392 453
-2159 401z m635 -718 c360 -79 661 -263 863 -529 160 -212 289 -564 358 -978
44 -262 51 -354 51 -679 0 -396 -27 -633 -110 -964 -73 -290 -178 -533 -299
-693 -207 -272 -534 -466 -901 -534 -137 -26 -448 -26 -585 -1 -455 85 -842
365 -1025 741 -138 282 -229 647 -270 1086 -21 211 -16 642 9 840 64 512 198
929 374 1166 194 262 467 441 800 525 169 43 219 48 437 44 158 -2 221 -7 298
-24z"/>
<path d="M0 4555 l0 -1035 365 0 365 0 0 43 c1 108 21 334 40 430 22 114 75
278 117 361 116 233 318 418 544 498 151 53 227 62 534 62 l280 1 3 -1880 c2
-1667 0 -1886 -13 -1940 -19 -73 -53 -125 -107 -160 -90 -60 -85 -59 -561 -63
l-437 -3 2 -327 3 -327 1788 -3 1787 -2 0 329 0 330 -432 3 c-421 3 -435 4
-488 25 -63 26 -122 78 -153 137 l-22 41 -3 1924 -2 1923 287 -5 c318 -6 394
-16 549 -76 415 -160 664 -619 664 -1222 l0 -99 368 2 367 3 3 1033 2 1032
-2925 0 -2925 0 0 -1035z"/>
<path d="M13052 4558 l3 -1033 368 -3 367 -2 0 63 c0 201 37 448 90 609 143
429 446 674 885 718 61 6 205 10 320 8 l210 -3 3 -1865 c2 -1342 -1 -1884 -9
-1933 -20 -124 -106 -210 -235 -236 -38 -7 -197 -11 -461 -11 l-403 0 2 -327
3 -328 1783 -3 1782 -2 0 329 0 330 -432 3 c-421 3 -435 4 -488 25 -63 26
-122 78 -153 137 l-22 41 -3 1924 -2 1923 287 -5 c318 -6 395 -16 548 -76 318
-123 543 -422 624 -830 24 -118 41 -286 41 -403 l0 -88 368 2 367 3 3 1033 2
1032 -2925 0 -2925 0 2 -1032z"/>
</g>
</svg>
